<svg data-v-fde0c5aa="" xmlns="http://www.w3.org/2000/svg" viewBox="0 0 300 300" class="iconAbove"><!----><defs data-v-fde0c5aa=""><!----></defs><rect data-v-fde0c5aa="" fill="transparent" x="0" y="0" width="300px" height="300px" class="logo-background-square"></rect><defs data-v-fde0c5aa=""><!----></defs><g data-v-fde0c5aa="" id="21424006-f86a-420e-b585-b6cd94eeba22" fill="#000000" transform="matrix(4.825538479096831,0,0,4.825538479096831,20,143.69873518848837)"><path d="M0.77 6.24L0.77 6.24L0.77 6.24Q0.82 6.36 0.85 6.48L0.85 6.48L0.85 6.48Q0.88 6.60 0.91 6.73L0.91 6.73L0.91 6.73Q0.94 6.85 0.98 6.97L0.98 6.97L0.98 6.97Q1.02 7.10 1.08 7.21L1.08 7.21L1.08 7.21Q1.20 7.42 1.30 7.64L1.30 7.64L1.30 7.64Q1.39 7.85 1.49 8.07L1.49 8.07L1.63 8.37L1.63 8.37Q1.74 8.55 1.90 8.57L1.90 8.57L1.90 8.57Q2.11 8.59 2.26 8.24L2.26 8.24L2.26 8.24Q2.35 8.05 2.43 7.84L2.43 7.84L2.43 7.84Q2.50 7.63 2.57 7.42L2.57 7.42L2.57 7.42Q2.58 7.40 2.61 7.34L2.61 7.34L2.61 7.34Q2.64 7.27 2.71 7.16L2.71 7.16L2.71 7.16Q2.75 7.08 2.79 7.02L2.79 7.02L2.79 7.02Q2.82 6.95 2.86 6.90L2.86 6.90L2.86 6.90Q3.01 6.58 3.17 6.25L3.17 6.25L3.17 6.25Q3.33 5.91 3.45 5.56L3.45 5.56L3.45 5.56Q3.47 5.47 3.53 5.45L3.53 5.45L3.53 5.45Q3.58 5.43 3.75 5.50L3.75 5.50L3.75 5.50Q3.88 5.57 3.89 5.61L3.89 5.61L3.89 5.61Q3.90 5.67 3.86 5.77L3.86 5.77L3.86 5.77Q3.81 5.87 3.79 5.93L3.79 5.93L3.72 6.05L3.72 6.05Q3.66 6.16 3.61 6.27L3.61 6.27L3.61 6.27Q3.56 6.37 3.51 6.47L3.51 6.47L3.51 6.47Q3.41 6.66 3.34 6.85L3.34 6.85L3.34 6.85Q3.27 7.04 3.19 7.23L3.19 7.23L3.19 7.23Q3.00 7.64 2.81 8.04L2.81 8.04L2.81 8.04Q2.63 8.45 2.41 8.84L2.41 8.84L2.41 8.84Q2.32 9.00 2.25 9.21L2.25 9.21L2.25 9.21Q2.18 9.45 2.05 9.54L2.05 9.54L2.05 9.54Q2.00 9.58 1.93 9.59L1.93 9.59L1.93 9.59Q1.89 9.60 1.81 9.57L1.81 9.57L1.81 9.57Q1.76 9.55 1.72 9.50L1.72 9.50L1.72 9.50Q1.68 9.45 1.65 9.39L1.65 9.39L1.65 9.39Q1.62 9.33 1.59 9.27L1.59 9.27L1.59 9.27Q1.57 9.21 1.54 9.16L1.54 9.16L1.54 9.16Q1.39 8.93 1.27 8.65L1.27 8.65L1.27 8.65Q1.15 8.37 1.00 8.04L1.00 8.04L1.00 8.04Q0.90 7.82 0.82 7.59L0.82 7.59L0.82 7.59Q0.73 7.37 0.62 7.15L0.62 7.15L0.62 7.15Q0.57 7.08 0.47 6.77L0.47 6.77L0.47 6.77Q0.46 6.73 0.44 6.65L0.44 6.65L0.44 6.65Q0.42 6.58 0.38 6.49L0.38 6.49L0.38 6.49Q0.32 6.34 0.25 6.21L0.25 6.21L0.25 6.21Q0.18 6.07 0.11 5.93L0.11 5.93L0.11 5.93Q0 5.67 0 5.61L0 5.61L0 5.61Q0.02 5.48 0.14 5.43L0.14 5.43L0.14 5.43Q0.33 5.35 0.44 5.59L0.44 5.59L0.44 5.59Q0.51 5.76 0.60 5.92L0.60 5.92L0.60 5.92Q0.69 6.08 0.77 6.24ZM5.76 9.70L5.76 9.70L5.76 9.70Q5.54 9.67 5.54 9.44L5.54 9.44L5.54 9.44Q5.54 9.07 5.54 8.72L5.54 8.72L5.54 8.72Q5.54 8.36 5.54 7.99L5.54 7.99L5.54 7.99Q5.54 7.79 5.56 7.58L5.56 7.58L5.56 7.58Q5.57 7.43 5.57 7.30L5.57 7.30L5.57 7.30Q5.57 7.17 5.56 7.06L5.56 7.06L5.56 7.06Q5.56 6.99 5.55 6.90L5.55 6.90L5.55 6.90Q5.54 6.80 5.54 6.67L5.54 6.67L5.54 6.67Q5.54 6.60 5.54 6.51L5.54 6.51L5.54 6.51Q5.54 6.41 5.55 6.28L5.55 6.28L5.55 6.28Q5.56 6.19 5.56 6.11L5.56 6.11L5.56 6.11Q5.56 6.04 5.56 5.99L5.56 5.99L5.56 5.84L5.56 5.83L5.56 5.78L5.56 5.78Q5.54 5.61 5.57 5.54L5.57 5.54L5.57 5.54Q5.59 5.49 5.66 5.44L5.66 5.44L5.66 5.44Q5.93 5.30 5.99 5.61L5.99 5.61L5.99 5.61Q6.04 5.84 6.05 6.07L6.05 6.07L6.05 6.07Q6.06 6.29 6.04 6.51L6.04 6.51L6.04 6.51L6.04 6.51Q6.02 6.73 6.03 6.94L6.03 6.94L6.03 6.94Q6.04 7.15 6.02 7.36L6.02 7.36L6.02 7.36Q6.00 7.55 5.99 7.68L5.99 7.68L5.99 7.68Q5.97 7.82 5.97 7.92L5.97 7.92L5.97 7.92Q5.95 8.05 5.95 8.20L5.95 8.20L5.95 8.20Q5.95 8.35 5.96 8.51L5.96 8.51L5.96 8.51Q5.97 8.54 5.97 8.59L5.97 8.59L5.97 8.59Q5.97 8.63 5.97 8.70L5.97 8.70L5.97 8.70Q5.97 8.80 5.97 8.91L5.97 8.91L5.97 8.91Q5.97 9.02 5.97 9.13L5.97 9.13L5.97 9.13Q5.97 9.20 5.98 9.27L5.98 9.27L5.98 9.27Q5.98 9.33 5.97 9.40L5.97 9.40L5.97 9.40Q5.97 9.54 5.97 9.55L5.97 9.55L5.97 9.55Q5.94 9.68 5.76 9.70ZM8.27 9.56L8.27 9.56L8.27 9.56Q8.24 9.68 8.06 9.70L8.06 9.70L8.06 9.70Q7.87 9.69 7.87 9.49L7.87 9.49L7.87 9.49Q7.87 8.96 7.84 8.41L7.84 8.41L7.84 8.41Q7.82 7.87 7.88 7.33L7.88 7.33L7.88 7.33L7.88 7.33Q7.88 7.17 7.88 7.02L7.88 7.02L7.88 7.02Q7.88 6.87 7.87 6.73L7.87 6.73L7.81 6.21L7.81 6.21Q7.79 5.99 7.88 5.74L7.88 5.74L7.88 5.74Q7.95 5.56 8.07 5.52L8.07 5.52L8.07 5.52Q8.16 5.50 8.26 5.62L8.26 5.62L8.26 5.62Q8.36 5.72 8.41 5.80L8.41 5.80L8.41 5.80Q8.50 5.93 8.59 6.03L8.59 6.03L8.59 6.03Q8.68 6.13 8.77 6.22L8.77 6.22L8.77 6.22Q8.85 6.31 8.92 6.37L8.92 6.37L8.92 6.37Q9.00 6.44 9.08 6.52L9.08 6.52L9.08 6.52Q9.15 6.59 9.23 6.70L9.23 6.70L9.23 6.70Q9.31 6.80 9.41 6.95L9.41 6.95L9.71 7.41L9.71 7.41Q9.74 7.46 9.78 7.52L9.78 7.52L9.78 7.52Q9.82 7.58 9.87 7.66L9.87 7.66L9.88 7.67L9.88 7.67Q10.02 7.86 10.18 8.03L10.18 8.03L10.18 8.03Q10.25 8.11 10.33 8.19L10.33 8.19L10.33 8.19Q10.40 8.26 10.49 8.33L10.49 8.33L10.49 8.33Q10.56 8.42 10.66 8.39L10.66 8.39L10.66 8.39Q10.82 8.35 10.81 8.07L10.81 8.07L10.81 8.07Q10.81 8.00 10.80 7.93L10.80 7.93L10.80 7.93Q10.79 7.85 10.79 7.78L10.79 7.78L10.79 7.78Q10.79 7.72 10.78 7.67L10.78 7.67L10.78 7.67Q10.77 7.62 10.77 7.56L10.77 7.56L10.77 7.56Q10.77 7.53 10.77 7.50L10.77 7.50L10.77 7.50Q10.77 7.46 10.77 7.42L10.77 7.42L10.77 7.42Q10.79 6.82 10.73 6.30L10.73 6.30L10.73 6.30Q10.72 6.27 10.72 6.19L10.72 6.19L10.72 6.19Q10.72 6.11 10.73 5.99L10.73 5.99L10.73 5.99Q10.74 5.84 10.77 5.67L10.77 5.67L10.77 5.67Q10.79 5.42 10.99 5.42L10.99 5.42L10.99 5.42Q11.21 5.42 11.21 5.68L11.21 5.68L11.21 5.68Q11.22 5.89 11.23 6.11L11.23 6.11L11.23 6.11Q11.24 6.32 11.24 6.54L11.24 6.54L11.24 6.54Q11.25 6.85 11.22 7.16L11.22 7.16L11.22 7.16Q11.20 7.48 11.22 7.79L11.22 7.79L11.22 7.79Q11.23 8.00 11.23 8.21L11.23 8.21L11.23 8.21Q11.22 8.42 11.22 8.62L11.22 8.62L11.22 8.62Q11.22 8.74 11.22 8.85L11.22 8.85L11.22 8.85Q11.22 8.96 11.22 9.06L11.22 9.06L11.22 9.34L11.22 9.34Q11.22 9.38 11.21 9.42L11.21 9.42L11.21 9.42Q11.21 9.46 11.21 9.50L11.21 9.50L11.21 9.50Q11.20 9.50 11.20 9.51L11.20 9.51L11.20 9.51Q11.20 9.52 11.20 9.52L11.20 9.52L11.20 9.52Q11.12 9.62 10.96 9.62L10.96 9.62L10.96 9.62Q10.78 9.63 10.68 9.50L10.68 9.50L10.68 9.50Q10.58 9.37 10.50 9.22L10.50 9.22L10.50 9.22Q10.41 9.07 10.31 8.93L10.31 8.93L10.31 8.93Q10.19 8.76 10.04 8.58L10.04 8.58L10.04 8.58Q9.89 8.39 9.71 8.18L9.71 8.18L9.71 8.18Q9.65 8.10 9.52 7.90L9.52 7.90L9.28 7.52L9.28 7.52Q9.19 7.38 9.11 7.24L9.11 7.24L9.11 7.24Q9.02 7.10 8.92 6.97L8.92 6.97L8.92 6.97Q8.88 6.92 8.83 6.87L8.83 6.87L8.83 6.87Q8.78 6.81 8.73 6.77L8.73 6.77L8.73 6.77Q8.67 6.73 8.61 6.71L8.61 6.71L8.61 6.71Q8.54 6.69 8.47 6.71L8.47 6.71L8.47 6.71Q8.29 6.76 8.30 7.08L8.30 7.08L8.30 7.08Q8.31 7.31 8.31 7.52L8.31 7.52L8.31 7.52Q8.31 7.72 8.33 7.90L8.33 7.90L8.33 7.90Q8.34 8.05 8.32 8.19L8.32 8.19L8.32 8.19Q8.31 8.33 8.31 8.47L8.31 8.47L8.31 9.00L8.31 9.00Q8.31 9.17 8.30 9.31L8.30 9.31L8.30 9.31Q8.29 9.45 8.27 9.56ZM16.41 5.75L16.41 5.75L16.41 5.75Q16.32 5.86 16.10 5.84L16.10 5.84L15.76 5.82L15.76 5.82Q15.65 5.82 15.56 5.81L15.56 5.81L15.56 5.81Q15.46 5.80 15.36 5.80L15.36 5.80L15.36 5.80Q15.16 5.80 15.06 5.89L15.06 5.89L15.06 5.89Q14.98 5.98 14.98 6.19L14.98 6.19L14.98 6.19Q14.98 6.28 14.99 6.37L14.99 6.37L14.99 6.37Q15.00 6.47 15.00 6.56L15.00 6.56L15.00 6.56Q15.01 6.79 15.02 6.96L15.02 6.96L15.02 6.96Q15.02 7.12 15.02 7.24L15.02 7.24L15.02 7.24Q15.02 7.59 14.98 7.94L14.98 7.94L14.98 7.94Q14.96 8.10 14.98 8.26L14.98 8.26L14.98 8.26Q15.00 8.43 15.00 8.59L15.00 8.59L15.00 8.59Q15.01 8.76 15.02 8.89L15.02 8.89L15.02 8.89Q15.02 9.02 15.02 9.11L15.02 9.11L15.02 9.11Q15.02 9.15 15.02 9.20L15.02 9.20L15.02 9.20Q15.02 9.26 15.01 9.35L15.01 9.35L15.01 9.35Q15.00 9.54 14.98 9.58L14.98 9.58L14.98 9.58Q14.90 9.73 14.75 9.69L14.75 9.69L14.75 9.69Q14.57 9.65 14.57 9.43L14.57 9.43L14.57 9.43Q14.57 9.22 14.58 9.01L14.58 9.01L14.58 9.01Q14.60 8.80 14.62 8.60L14.62 8.60L14.62 8.60Q14.64 8.36 14.61 8.11L14.61 8.11L14.61 8.11Q14.59 7.87 14.59 7.62L14.59 7.62L14.59 7.62Q14.59 7.40 14.60 7.17L14.60 7.17L14.60 7.17Q14.62 6.94 14.63 6.71L14.63 6.71L14.63 6.71Q14.63 6.27 14.49 6.08L14.49 6.08L14.49 6.08Q14.41 5.99 14.30 5.94L14.30 5.94L14.30 5.94Q14.20 5.89 14.07 5.87L14.07 5.87L14.07 5.87Q13.94 5.86 13.83 5.85L13.83 5.85L13.83 5.85Q13.71 5.84 13.60 5.84L13.60 5.84L13.60 5.84Q13.52 5.84 13.40 5.84L13.40 5.84L13.40 5.84Q13.27 5.84 13.20 5.80L13.20 5.80L13.20 5.80Q13.15 5.77 13.13 5.67L13.13 5.67L13.13 5.67Q13.12 5.59 13.15 5.54L13.15 5.54L13.15 5.54Q13.20 5.46 13.39 5.43L13.39 5.43L13.39 5.43Q13.41 5.43 13.47 5.43L13.47 5.43L13.47 5.43Q13.75 5.42 14.02 5.45L14.02 5.45L14.02 5.45Q14.29 5.48 14.58 5.46L14.58 5.46L14.58 5.46Q14.70 5.46 14.81 5.44L14.81 5.44L14.81 5.44Q14.92 5.43 15.05 5.43L15.05 5.43L15.05 5.43Q15.27 5.43 15.50 5.43L15.50 5.43L15.50 5.43Q15.73 5.43 15.96 5.42L15.96 5.42L15.96 5.42Q16.07 5.42 16.16 5.43L16.16 5.43L16.16 5.43Q16.24 5.43 16.30 5.46L16.30 5.46L16.30 5.46Q16.52 5.61 16.41 5.75ZM21.42 9.47L21.42 9.47L21.42 9.47Q21.42 9.65 21.28 9.69L21.28 9.69L21.28 9.69Q21.16 9.75 21.06 9.61L21.06 9.61L21.06 9.61Q21.01 9.54 20.98 9.49L20.98 9.49L20.98 9.49Q20.95 9.43 20.93 9.39L20.93 9.39L20.93 9.39Q20.84 9.18 20.76 9.03L20.76 9.03L20.76 9.03Q20.69 8.87 20.61 8.78L20.61 8.78L20.61 8.78Q20.45 8.55 20.25 8.49L20.25 8.49L20.25 8.49Q20.08 8.44 19.70 8.48L19.70 8.48L19.70 8.48Q19.48 8.50 19.29 8.51L19.29 8.51L19.29 8.51Q19.09 8.52 18.92 8.50L18.92 8.50L18.92 8.50Q18.52 8.48 18.33 8.76L18.33 8.76L18.31 8.78L18.31 8.79L18.31 8.79Q18.24 8.93 18.19 9.06L18.19 9.06L18.19 9.06Q18.15 9.19 18.09 9.32L18.09 9.32L17.94 9.54L17.94 9.54Q17.85 9.69 17.75 9.70L17.75 9.70L17.75 9.70Q17.70 9.72 17.61 9.65L17.61 9.65L17.61 9.65Q17.57 9.60 17.56 9.55L17.56 9.55L17.56 9.55Q17.55 9.49 17.56 9.43L17.56 9.43L17.56 9.43Q17.57 9.37 17.59 9.30L17.59 9.30L17.59 9.30Q17.62 9.24 17.64 9.19L17.64 9.19L17.80 8.85L17.80 8.85Q18.04 8.35 18.25 7.85L18.25 7.85L18.25 7.85Q18.46 7.34 18.69 6.83L18.69 6.83L18.69 6.83Q18.73 6.74 18.76 6.66L18.76 6.66L18.76 6.66Q18.79 6.58 18.83 6.51L18.83 6.51L18.83 6.51Q18.90 6.32 18.98 6.14L18.98 6.14L18.98 6.14Q19.05 5.95 19.15 5.76L19.15 5.76L19.25 5.61L19.25 5.61Q19.33 5.48 19.39 5.48L19.39 5.48L19.39 5.48Q19.46 5.46 19.57 5.59L19.57 5.59L19.57 5.59Q19.69 5.73 19.79 5.91L19.79 5.91L19.79 5.91Q19.90 6.10 19.97 6.26L19.97 6.26L19.97 6.26Q20.21 6.77 20.42 7.28L20.42 7.28L20.42 7.28Q20.63 7.79 20.87 8.28L20.87 8.28L20.87 8.28Q20.95 8.43 21.02 8.58L21.02 8.58L21.02 8.58Q21.09 8.74 21.17 8.88L21.17 8.88L21.17 8.88Q21.21 8.98 21.26 9.08L21.26 9.08L21.26 9.08Q21.30 9.17 21.34 9.27L21.34 9.27L21.34 9.27Q21.38 9.34 21.40 9.39L21.40 9.39L21.40 9.39Q21.42 9.44 21.42 9.47ZM20.07 7.56L20.07 7.56L20.07 7.56Q20.00 7.40 19.94 7.22L19.94 7.22L19.94 7.22Q19.87 7.05 19.78 6.88L19.78 6.88L19.78 6.88Q19.62 6.57 19.42 6.58L19.42 6.58L19.42 6.58Q19.35 6.58 19.29 6.62L19.29 6.62L19.29 6.62Q19.23 6.67 19.19 6.72L19.19 6.72L19.19 6.72Q19.15 6.78 19.11 6.85L19.11 6.85L19.11 6.85Q19.08 6.92 19.06 6.98L19.06 6.98L19.06 6.98Q18.98 7.18 18.92 7.40L18.92 7.40L18.92 7.40Q18.85 7.62 18.79 7.83L18.79 7.83L18.79 7.83Q18.74 7.98 18.80 8.05L18.80 8.05L18.80 8.05Q18.84 8.12 19.01 8.13L19.01 8.13L19.01 8.13Q19.16 8.14 19.28 8.15L19.28 8.15L19.28 8.15Q19.39 8.15 19.47 8.14L19.47 8.14L19.47 8.14Q19.62 8.14 19.87 8.10L19.87 8.10L19.87 8.10Q20.12 8.06 20.17 7.88L20.17 7.88L20.17 7.88Q20.19 7.77 20.14 7.69L20.14 7.69L20.14 7.69Q20.13 7.66 20.10 7.63L20.10 7.63L20.10 7.63Q20.08 7.59 20.07 7.56ZM26.72 9.26L26.72 9.26L26.72 9.26Q26.22 9.71 25.50 9.75L25.50 9.75L25.50 9.75Q24.81 9.78 24.20 9.53L24.20 9.53L24.19 9.52L24.18 9.52L24.18 9.52Q24.08 9.49 23.88 9.33L23.88 9.33L23.88 9.33Q23.70 9.17 23.64 9.08L23.64 9.08L23.64 9.08Q23.54 8.95 23.46 8.78L23.46 8.78L23.46 8.78Q23.38 8.61 23.30 8.45L23.30 8.45L23.30 8.45Q23.15 8.16 23.13 7.95L23.13 7.95L23.13 7.95Q23.13 7.85 23.13 7.71L23.13 7.71L23.13 7.71Q23.13 7.58 23.15 7.41L23.15 7.41L23.15 7.41Q23.21 6.66 23.62 6.02L23.62 6.02L23.62 6.02Q23.65 5.97 23.75 5.89L23.75 5.89L23.75 5.89Q23.84 5.81 23.99 5.73L23.99 5.73L23.99 5.73Q24.31 5.56 24.53 5.49L24.53 5.49L24.53 5.49Q24.67 5.44 24.85 5.42L24.85 5.42L24.85 5.42Q25.26 5.37 25.69 5.42L25.69 5.42L25.69 5.42Q26.12 5.48 26.49 5.69L26.49 5.69L26.49 5.69Q26.54 5.72 26.61 5.77L26.61 5.77L26.61 5.77Q26.67 5.82 26.76 5.89L26.76 5.89L26.76 5.89Q26.93 6.02 26.95 6.15L26.95 6.15L26.95 6.15Q26.96 6.21 26.91 6.27L26.91 6.27L26.91 6.27Q26.84 6.36 26.77 6.36L26.77 6.36L26.77 6.36Q26.69 6.36 26.59 6.30L26.59 6.30L26.59 6.30Q26.50 6.23 26.44 6.19L26.44 6.19L26.44 6.19Q26.33 6.12 26.25 6.07L26.25 6.07L26.25 6.07Q26.18 6.02 26.17 6.01L26.17 6.01L26.17 6.01Q25.82 5.82 25.32 5.82L25.32 5.82L25.32 5.82Q25.20 5.82 25.07 5.83L25.07 5.83L25.07 5.83Q24.93 5.84 24.77 5.87L24.77 5.87L24.76 5.87L24.75 5.88L24.75 5.88Q23.88 6.13 23.62 7.06L23.62 7.06L23.62 7.06Q23.53 7.40 23.58 7.70L23.58 7.70L23.58 7.70Q23.63 8.00 23.71 8.31L23.71 8.31L23.71 8.31Q23.84 8.79 24.14 9.00L24.14 9.00L24.14 9.00Q24.45 9.21 24.90 9.30L24.90 9.30L24.91 9.30L24.91 9.30Q25.03 9.32 25.14 9.32L25.14 9.32L25.14 9.32Q25.25 9.32 25.35 9.30L25.35 9.30L25.35 9.30Q25.45 9.28 25.56 9.26L25.56 9.26L25.56 9.26Q25.66 9.24 25.79 9.23L25.79 9.23L25.79 9.23Q26.27 9.17 26.48 8.88L26.48 8.88L26.48 8.87L26.48 8.87Q26.63 8.64 26.60 8.22L26.60 8.22L26.60 8.22Q26.59 8.00 26.44 7.87L26.44 7.87L26.44 7.87Q26.26 7.70 25.93 7.71L25.93 7.71L25.38 7.73L25.38 7.73Q25.29 7.74 25.22 7.74L25.22 7.74L25.22 7.74Q25.16 7.75 25.10 7.75L25.10 7.75L25.10 7.75Q24.84 7.71 24.88 7.51L24.88 7.51L24.88 7.51Q24.90 7.38 25.07 7.33L25.07 7.33L25.07 7.33Q25.38 7.31 25.67 7.33L25.67 7.33L25.67 7.33Q25.97 7.35 26.28 7.33L26.28 7.33L26.58 7.31L26.58 7.31Q26.78 7.29 26.87 7.38L26.87 7.38L26.87 7.38Q26.98 7.46 26.99 7.66L26.99 7.66L26.99 7.66Q27.01 7.87 27.01 7.98L27.01 7.98L27.01 7.98Q27.01 8.16 27.02 8.36L27.02 8.36L27.02 8.36Q27.02 8.57 26.99 8.74L26.99 8.74L26.99 8.74Q26.94 9.00 26.72 9.26ZM28.77 9.29L28.77 9.29L28.77 9.29Q28.77 8.87 28.77 8.46L28.77 8.46L28.77 8.46Q28.77 8.04 28.77 7.62L28.77 7.62L28.77 7.38L28.77 7.38Q28.77 7.20 28.76 7.01L28.76 7.01L28.76 7.01Q28.75 6.82 28.77 6.64L28.77 6.64L28.77 6.64Q28.77 6.43 28.77 6.23L28.77 6.23L28.77 6.23Q28.77 6.03 28.78 5.82L28.78 5.82L28.78 5.82Q28.78 5.58 28.90 5.48L28.90 5.48L28.90 5.48Q28.98 5.41 29.21 5.41L29.21 5.41L29.21 5.41Q29.33 5.41 29.41 5.40L29.41 5.40L29.41 5.40Q29.50 5.40 29.56 5.40L29.56 5.40L29.56 5.40Q29.83 5.39 30.09 5.40L30.09 5.40L30.09 5.40Q30.36 5.41 30.63 5.41L30.63 5.41L30.63 5.41Q30.77 5.40 30.91 5.40L30.91 5.40L30.91 5.40Q31.06 5.39 31.19 5.41L31.19 5.41L31.54 5.43L31.54 5.43Q31.60 5.43 31.65 5.43L31.65 5.43L31.65 5.43Q31.69 5.43 31.73 5.45L31.73 5.45L31.73 5.45Q31.87 5.52 31.86 5.66L31.86 5.66L31.86 5.66Q31.86 5.72 31.81 5.76L31.81 5.76L31.81 5.76Q31.77 5.80 31.72 5.82L31.72 5.82L31.72 5.82Q31.67 5.84 31.62 5.84L31.62 5.84L31.62 5.84Q31.56 5.85 31.52 5.85L31.52 5.85L31.52 5.85Q31.10 5.85 30.69 5.83L30.69 5.83L30.69 5.83Q30.65 5.82 30.59 5.82L30.59 5.82L30.59 5.82Q30.53 5.82 30.45 5.82L30.45 5.82L30.06 5.82L30.06 5.82Q29.90 5.82 29.78 5.83L29.78 5.83L29.78 5.83Q29.65 5.83 29.57 5.83L29.57 5.83L29.57 5.83Q29.46 5.84 29.38 5.86L29.38 5.86L29.38 5.86Q29.31 5.89 29.27 5.94L29.27 5.94L29.27 5.94Q29.22 6.02 29.23 6.15L29.23 6.15L29.23 6.15Q29.23 6.20 29.23 6.24L29.23 6.24L29.23 6.24Q29.23 6.28 29.22 6.32L29.22 6.32L29.22 6.32Q29.21 6.40 29.20 6.49L29.20 6.49L29.20 6.49Q29.20 6.58 29.20 6.69L29.20 6.69L29.20 6.69Q29.20 6.88 29.35 7.01L29.35 7.01L29.35 7.01Q29.48 7.12 29.80 7.10L29.80 7.10L29.80 7.10Q29.94 7.10 30.08 7.08L30.08 7.08L30.08 7.08Q30.22 7.06 30.37 7.07L30.37 7.07L30.37 7.07Q30.43 7.07 30.53 7.07L30.53 7.07L30.53 7.07Q30.63 7.08 30.76 7.07L30.76 7.07L30.76 7.07Q31.04 7.06 31.13 7.16L31.13 7.16L31.13 7.16Q31.17 7.21 31.16 7.32L31.16 7.32L31.16 7.32Q31.14 7.44 30.97 7.47L30.97 7.47L30.97 7.47Q30.81 7.50 30.71 7.50L30.71 7.50L30.71 7.50Q30.59 7.51 30.47 7.50L30.47 7.50L30.47 7.50Q30.35 7.50 30.23 7.51L30.23 7.51L30.23 7.51Q30.08 7.52 29.92 7.51L29.92 7.51L29.92 7.51Q29.76 7.51 29.59 7.49L29.59 7.49L29.59 7.49Q29.57 7.49 29.54 7.49L29.54 7.49L29.54 7.49Q29.52 7.49 29.50 7.49L29.50 7.49L29.49 7.49L29.49 7.49Q29.42 7.47 29.34 7.52L29.34 7.52L29.34 7.52Q29.22 7.59 29.20 7.78L29.20 7.78L29.20 7.78Q29.19 7.96 29.20 8.09L29.20 8.09L29.20 8.09Q29.21 8.16 29.21 8.22L29.21 8.22L29.21 8.22Q29.22 8.29 29.21 8.33L29.21 8.33L29.21 8.33Q29.20 8.44 29.19 8.53L29.19 8.53L29.19 8.53Q29.18 8.63 29.16 8.74L29.16 8.74L29.16 8.74Q29.14 9.00 29.23 9.13L29.23 9.13L29.23 9.13Q29.35 9.28 29.63 9.28L29.63 9.28L29.63 9.28Q29.86 9.28 30.09 9.27L30.09 9.27L30.09 9.27Q30.32 9.26 30.56 9.25L30.56 9.25L30.56 9.25Q30.77 9.24 30.99 9.26L30.99 9.26L30.99 9.26Q31.21 9.28 31.43 9.28L31.43 9.28L31.43 9.28Q31.51 9.28 31.65 9.28L31.65 9.28L31.65 9.28Q31.79 9.28 31.86 9.32L31.86 9.32L31.86 9.32Q31.93 9.36 31.94 9.44L31.94 9.44L31.94 9.44Q32.01 9.69 31.73 9.70L31.73 9.70L31.73 9.70Q31.27 9.72 30.84 9.71L30.84 9.71L30.84 9.71Q30.41 9.71 29.97 9.71L29.97 9.71L29.97 9.71Q29.94 9.71 29.92 9.72L29.92 9.72L29.92 9.72Q29.89 9.72 29.87 9.72L29.87 9.72L29.87 9.72Q29.72 9.72 29.60 9.72L29.60 9.72L29.60 9.72Q29.49 9.72 29.42 9.71L29.42 9.71L29.42 9.71Q29.37 9.71 29.30 9.71L29.30 9.71L29.30 9.71Q29.24 9.71 29.16 9.70L29.16 9.70L29.16 9.70Q29.09 9.69 29.04 9.69L29.04 9.69L29.04 9.69Q29.00 9.68 28.98 9.67L28.98 9.67L28.98 9.67Q28.77 9.61 28.77 9.29ZM39.38 5.75L39.38 5.75L39.38 5.75Q39.29 5.86 39.07 5.84L39.07 5.84L38.73 5.82L38.73 5.82Q38.62 5.82 38.53 5.81L38.53 5.81L38.53 5.81Q38.43 5.80 38.33 5.80L38.33 5.80L38.33 5.80Q38.12 5.80 38.03 5.89L38.03 5.89L38.03 5.89Q37.95 5.98 37.95 6.19L37.95 6.19L37.95 6.19Q37.95 6.28 37.96 6.37L37.96 6.37L37.96 6.37Q37.97 6.47 37.97 6.56L37.97 6.56L37.97 6.56Q37.98 6.79 37.98 6.96L37.98 6.96L37.98 6.96Q37.99 7.12 37.99 7.24L37.99 7.24L37.99 7.24Q37.99 7.59 37.95 7.94L37.95 7.94L37.95 7.94Q37.93 8.10 37.95 8.26L37.95 8.26L37.95 8.26Q37.97 8.43 37.97 8.59L37.97 8.59L37.97 8.59Q37.98 8.76 37.98 8.89L37.98 8.89L37.98 8.89Q37.99 9.02 37.99 9.11L37.99 9.11L37.99 9.11Q37.99 9.15 37.99 9.20L37.99 9.20L37.99 9.20Q37.99 9.26 37.98 9.35L37.98 9.35L37.98 9.35Q37.97 9.54 37.95 9.58L37.95 9.58L37.95 9.58Q37.86 9.73 37.72 9.69L37.72 9.69L37.72 9.69Q37.54 9.65 37.54 9.43L37.54 9.43L37.54 9.43Q37.54 9.22 37.55 9.01L37.55 9.01L37.55 9.01Q37.57 8.80 37.58 8.60L37.58 8.60L37.58 8.60Q37.60 8.36 37.58 8.11L37.58 8.11L37.58 8.11Q37.56 7.87 37.56 7.62L37.56 7.62L37.56 7.62Q37.56 7.40 37.57 7.17L37.57 7.17L37.57 7.17Q37.59 6.94 37.60 6.71L37.60 6.71L37.60 6.71Q37.60 6.27 37.45 6.08L37.45 6.08L37.45 6.08Q37.38 5.99 37.27 5.94L37.27 5.94L37.27 5.94Q37.17 5.89 37.04 5.87L37.04 5.87L37.04 5.87Q36.91 5.86 36.79 5.85L36.79 5.85L36.79 5.85Q36.68 5.84 36.57 5.84L36.57 5.84L36.57 5.84Q36.49 5.84 36.36 5.84L36.36 5.84L36.36 5.84Q36.24 5.84 36.17 5.80L36.17 5.80L36.17 5.80Q36.11 5.77 36.10 5.67L36.10 5.67L36.10 5.67Q36.09 5.59 36.12 5.54L36.12 5.54L36.12 5.54Q36.17 5.46 36.36 5.43L36.36 5.43L36.36 5.43Q36.38 5.43 36.44 5.43L36.44 5.43L36.44 5.43Q36.72 5.42 36.99 5.45L36.99 5.45L36.99 5.45Q37.26 5.48 37.55 5.46L37.55 5.46L37.55 5.46Q37.67 5.46 37.78 5.44L37.78 5.44L37.78 5.44Q37.89 5.43 38.01 5.43L38.01 5.43L38.01 5.43Q38.24 5.43 38.47 5.43L38.47 5.43L38.47 5.43Q38.70 5.43 38.92 5.42L38.92 5.42L38.92 5.42Q39.04 5.42 39.13 5.43L39.13 5.43L39.13 5.43Q39.21 5.43 39.27 5.46L39.27 5.46L39.27 5.46Q39.48 5.61 39.38 5.75ZM41.10 9.29L41.10 9.29L41.10 9.29Q41.09 8.87 41.09 8.46L41.09 8.46L41.09 8.46Q41.10 8.04 41.10 7.62L41.10 7.62L41.10 7.38L41.10 7.38Q41.10 7.20 41.09 7.01L41.09 7.01L41.09 7.01Q41.08 6.82 41.09 6.64L41.09 6.64L41.09 6.64Q41.10 6.43 41.10 6.23L41.10 6.23L41.10 6.23Q41.10 6.03 41.10 5.82L41.10 5.82L41.10 5.82Q41.10 5.58 41.22 5.48L41.22 5.48L41.22 5.48Q41.31 5.41 41.54 5.41L41.54 5.41L41.54 5.41Q41.65 5.41 41.74 5.40L41.74 5.40L41.74 5.40Q41.82 5.40 41.88 5.40L41.88 5.40L41.88 5.40Q42.15 5.39 42.42 5.40L42.42 5.40L42.42 5.40Q42.68 5.41 42.95 5.41L42.95 5.41L42.95 5.41Q43.09 5.40 43.24 5.40L43.24 5.40L43.24 5.40Q43.38 5.39 43.52 5.41L43.52 5.41L43.87 5.43L43.87 5.43Q43.93 5.43 43.97 5.43L43.97 5.43L43.97 5.43Q44.02 5.43 44.05 5.45L44.05 5.45L44.05 5.45Q44.19 5.52 44.19 5.66L44.19 5.66L44.19 5.66Q44.18 5.72 44.14 5.76L44.14 5.76L44.14 5.76Q44.10 5.80 44.05 5.82L44.05 5.82L44.05 5.82Q44.00 5.84 43.94 5.84L43.94 5.84L43.94 5.84Q43.89 5.85 43.85 5.85L43.85 5.85L43.85 5.85Q43.43 5.85 43.02 5.83L43.02 5.83L43.02 5.83Q42.98 5.82 42.92 5.82L42.92 5.82L42.92 5.82Q42.85 5.82 42.78 5.82L42.78 5.82L42.38 5.82L42.38 5.82Q42.23 5.82 42.10 5.83L42.10 5.83L42.10 5.83Q41.98 5.83 41.90 5.83L41.90 5.83L41.90 5.83Q41.78 5.84 41.71 5.86L41.71 5.86L41.71 5.86Q41.63 5.89 41.60 5.94L41.60 5.94L41.60 5.94Q41.54 6.02 41.56 6.15L41.56 6.15L41.56 6.15Q41.56 6.20 41.56 6.24L41.56 6.24L41.56 6.24Q41.56 6.28 41.55 6.32L41.55 6.32L41.55 6.32Q41.54 6.40 41.53 6.49L41.53 6.49L41.53 6.49Q41.52 6.58 41.53 6.69L41.53 6.69L41.53 6.69Q41.53 6.88 41.68 7.01L41.68 7.01L41.68 7.01Q41.80 7.12 42.12 7.10L42.12 7.10L42.12 7.10Q42.27 7.10 42.41 7.08L42.41 7.08L42.41 7.08Q42.55 7.06 42.69 7.07L42.69 7.07L42.69 7.07Q42.75 7.07 42.85 7.07L42.85 7.07L42.85 7.07Q42.95 7.08 43.09 7.07L43.09 7.07L43.09 7.07Q43.36 7.06 43.46 7.16L43.46 7.16L43.46 7.16Q43.49 7.21 43.48 7.32L43.48 7.32L43.48 7.32Q43.46 7.44 43.29 7.47L43.29 7.47L43.29 7.47Q43.13 7.50 43.04 7.50L43.04 7.50L43.04 7.50Q42.92 7.51 42.80 7.50L42.80 7.50L42.80 7.50Q42.68 7.50 42.55 7.51L42.55 7.51L42.55 7.51Q42.40 7.52 42.25 7.51L42.25 7.51L42.25 7.51Q42.09 7.51 41.92 7.49L41.92 7.49L41.92 7.49Q41.90 7.49 41.87 7.49L41.87 7.49L41.87 7.49Q41.84 7.49 41.82 7.49L41.82 7.49L41.82 7.49L41.82 7.49Q41.74 7.47 41.67 7.52L41.67 7.52L41.67 7.52Q41.54 7.59 41.53 7.78L41.53 7.78L41.53 7.78Q41.51 7.96 41.53 8.09L41.53 8.09L41.53 8.09Q41.54 8.16 41.54 8.22L41.54 8.22L41.54 8.22Q41.54 8.29 41.54 8.33L41.54 8.33L41.54 8.33Q41.52 8.44 41.51 8.53L41.51 8.53L41.51 8.53Q41.50 8.63 41.49 8.74L41.49 8.74L41.49 8.74Q41.47 9.00 41.56 9.13L41.56 9.13L41.56 9.13Q41.67 9.28 41.96 9.28L41.96 9.28L41.96 9.28Q42.18 9.28 42.42 9.27L42.42 9.27L42.42 9.27Q42.65 9.26 42.88 9.25L42.88 9.25L42.88 9.25Q43.09 9.24 43.32 9.26L43.32 9.26L43.32 9.26Q43.54 9.28 43.76 9.28L43.76 9.28L43.76 9.28Q43.84 9.28 43.98 9.28L43.98 9.28L43.98 9.28Q44.11 9.28 44.19 9.32L44.19 9.32L44.19 9.32Q44.26 9.36 44.26 9.44L44.26 9.44L44.26 9.44Q44.34 9.69 44.05 9.70L44.05 9.70L44.05 9.70Q43.60 9.72 43.17 9.71L43.17 9.71L43.17 9.71Q42.73 9.71 42.29 9.71L42.29 9.71L42.29 9.71Q42.27 9.71 42.24 9.72L42.24 9.72L42.24 9.72Q42.22 9.72 42.20 9.72L42.20 9.72L42.20 9.72Q42.04 9.72 41.93 9.72L41.93 9.72L41.93 9.72Q41.82 9.72 41.74 9.71L41.74 9.71L41.74 9.71Q41.69 9.71 41.63 9.71L41.63 9.71L41.63 9.71Q41.56 9.71 41.48 9.70L41.48 9.70L41.48 9.70Q41.41 9.69 41.37 9.69L41.37 9.69L41.37 9.69Q41.32 9.68 41.30 9.67L41.30 9.67L41.30 9.67Q41.10 9.61 41.10 9.29ZM48.58 9.06L48.58 9.06L48.58 9.06Q48.90 8.88 48.95 9.19L48.95 9.19L48.95 9.19Q48.98 9.32 48.82 9.44L48.82 9.44L48.82 9.44Q48.74 9.50 48.68 9.53L48.68 9.53L48.68 9.53Q48.61 9.57 48.56 9.59L48.56 9.59L48.56 9.59Q48.40 9.66 48.27 9.69L48.27 9.69L48.27 9.69Q48.15 9.72 48.05 9.73L48.05 9.73L48.05 9.73Q47.87 9.75 47.67 9.75L47.67 9.75L47.67 9.75Q47.48 9.75 47.26 9.71L47.26 9.71L47.26 9.71Q46.81 9.65 46.54 9.41L46.54 9.41L46.54 9.41Q46.29 9.19 46.12 8.89L46.12 8.89L46.12 8.89Q45.96 8.59 45.86 8.29L45.86 8.29L45.84 8.24L45.84 8.24Q45.78 8.05 45.80 7.80L45.80 7.80L45.80 7.80Q45.81 7.56 45.81 7.35L45.81 7.35L45.81 7.35Q45.81 7.18 45.81 7.06L45.81 7.06L45.81 7.06Q45.82 6.93 45.85 6.84L45.85 6.84L45.85 6.84Q45.90 6.67 46.07 6.38L46.07 6.38L46.07 6.38Q46.25 6.05 46.48 5.81L46.48 5.81L46.48 5.81Q46.72 5.57 47.11 5.49L47.11 5.49L47.11 5.49Q47.22 5.48 47.47 5.41L47.47 5.41L47.47 5.41Q47.54 5.39 47.64 5.37L47.64 5.37L47.64 5.37Q47.73 5.36 47.84 5.37L47.84 5.37L47.84 5.37Q47.93 5.37 48.05 5.39L48.05 5.39L48.05 5.39Q48.17 5.41 48.33 5.44L48.33 5.44L48.33 5.44Q48.44 5.48 48.67 5.58L48.67 5.58L48.67 5.58Q48.88 5.67 48.92 5.82L48.92 5.82L48.92 5.82Q48.93 5.88 48.90 5.94L48.90 5.94L48.90 5.94Q48.84 6.04 48.76 6.06L48.76 6.06L48.76 6.06Q48.71 6.08 48.64 6.06L48.64 6.06L48.64 6.06Q48.57 6.05 48.47 6.00L48.47 6.00L48.47 6.00Q48.33 5.93 48.21 5.88L48.21 5.88L48.21 5.88Q48.10 5.83 47.98 5.81L47.98 5.81L47.98 5.81Q47.86 5.78 47.73 5.79L47.73 5.79L47.73 5.79Q47.61 5.80 47.46 5.84L47.46 5.84L47.46 5.84Q47.10 5.95 46.96 6.02L46.96 6.02L46.96 6.02Q46.81 6.10 46.60 6.41L46.60 6.41L46.60 6.41Q46.44 6.65 46.35 6.91L46.35 6.91L46.35 6.91Q46.27 7.18 46.25 7.45L46.25 7.45L46.25 7.45Q46.24 7.73 46.30 8.00L46.30 8.00L46.30 8.00Q46.35 8.28 46.48 8.53L46.48 8.53L46.48 8.54L46.48 8.54L46.48 8.54Q46.78 9.08 47.33 9.22L47.33 9.22L47.33 9.22Q47.72 9.32 47.94 9.26L47.94 9.26L47.94 9.26Q48.00 9.26 48.06 9.24L48.06 9.24L48.06 9.24Q48.11 9.23 48.17 9.21L48.17 9.21L48.17 9.21Q48.41 9.17 48.58 9.06ZM52.04 7.01L52.04 7.01L52.04 7.01Q52.29 7.01 52.53 7.02L52.53 7.02L52.53 7.02Q52.78 7.03 53.03 7.07L53.03 7.07L53.03 7.07Q53.22 7.10 53.32 6.99L53.32 6.99L53.32 6.99Q53.40 6.90 53.39 6.78L53.39 6.78L53.39 6.78Q53.39 6.66 53.39 6.55L53.39 6.55L53.39 6.55Q53.40 6.38 53.40 6.25L53.40 6.25L53.40 6.25Q53.40 6.13 53.40 6.04L53.40 6.04L53.40 6.04Q53.40 6.00 53.40 5.93L53.40 5.93L53.40 5.93Q53.40 5.87 53.41 5.79L53.41 5.79L53.41 5.79Q53.41 5.72 53.42 5.65L53.42 5.65L53.42 5.65Q53.43 5.58 53.45 5.54L53.45 5.54L53.45 5.54Q53.51 5.40 53.68 5.41L53.68 5.41L53.68 5.41Q53.85 5.43 53.85 5.72L53.85 5.72L53.85 5.72Q53.85 5.89 53.83 6.06L53.83 6.06L53.83 6.06Q53.82 6.23 53.83 6.40L53.83 6.40L53.83 6.41L53.83 6.41Q53.83 6.68 53.85 6.95L53.85 6.95L53.85 6.95Q53.86 7.23 53.87 7.49L53.87 7.49L53.87 7.49Q53.89 7.66 53.87 7.82L53.87 7.82L53.87 7.82Q53.86 7.99 53.86 8.16L53.86 8.16L53.86 8.16Q53.85 8.44 53.85 8.73L53.85 8.73L53.85 8.73Q53.85 9.01 53.85 9.30L53.85 9.30L53.85 9.30Q53.85 9.55 53.81 9.63L53.81 9.63L53.81 9.63Q53.78 9.67 53.70 9.69L53.70 9.69L53.70 9.69Q53.45 9.75 53.42 9.47L53.42 9.47L53.42 9.47Q53.38 9.13 53.39 8.77L53.39 8.77L53.39 8.77Q53.40 8.42 53.39 8.06L53.39 8.06L53.39 8.06Q53.38 7.93 53.36 7.77L53.36 7.77L53.36 7.77Q53.33 7.62 53.22 7.52L53.22 7.52L53.22 7.52Q53.12 7.44 52.87 7.44L52.87 7.44L52.87 7.44Q52.75 7.44 52.63 7.44L52.63 7.44L52.63 7.44Q52.51 7.45 52.38 7.44L52.38 7.44L51.99 7.44L51.99 7.44Q51.87 7.45 51.75 7.44L51.75 7.44L51.75 7.44Q51.63 7.43 51.51 7.42L51.51 7.42L51.51 7.42Q51.25 7.40 51.12 7.49L51.12 7.49L51.12 7.49Q50.96 7.63 50.96 7.95L50.96 7.95L50.96 7.95Q50.96 8.16 50.97 8.38L50.97 8.38L50.97 8.38Q50.98 8.59 50.98 8.80L50.98 8.80L50.98 8.80Q50.98 8.97 50.97 9.10L50.97 9.10L50.97 9.10Q50.96 9.22 50.96 9.31L50.96 9.31L50.96 9.31Q50.96 9.41 50.95 9.47L50.95 9.47L50.95 9.47Q50.94 9.54 50.93 9.59L50.93 9.59L50.93 9.59Q50.85 9.73 50.69 9.69L50.69 9.69L50.69 9.69Q50.52 9.67 50.52 9.44L50.52 9.44L50.52 9.44Q50.52 9.21 50.52 9.00L50.52 9.00L50.52 9.00Q50.52 8.78 50.53 8.55L50.53 8.55L50.53 8.55Q50.54 8.34 50.53 8.12L50.53 8.12L50.53 8.12Q50.52 7.91 50.52 7.69L50.52 7.69L50.52 7.69Q50.52 7.34 50.53 6.99L50.53 6.99L50.53 6.99Q50.54 6.64 50.54 6.30L50.54 6.30L50.54 6.30Q50.54 6.24 50.54 6.15L50.54 6.15L50.54 6.15Q50.53 6.05 50.52 5.91L50.52 5.91L50.52 5.91Q50.51 5.61 50.54 5.54L50.54 5.54L50.54 5.54Q50.63 5.41 50.75 5.41L50.75 5.41L50.75 5.41Q50.96 5.42 50.98 5.74L50.98 5.74L50.98 5.74Q50.98 5.82 50.99 5.88L50.99 5.88L50.99 5.88Q50.99 5.94 50.99 5.99L50.99 5.99L50.99 5.99Q50.99 6.02 50.99 6.08L50.99 6.08L50.99 6.08Q50.99 6.15 50.98 6.23L50.98 6.23L50.98 6.23Q50.96 6.33 50.95 6.43L50.95 6.43L50.95 6.43Q50.93 6.54 50.93 6.63L50.93 6.63L50.93 6.63Q50.92 6.85 51.02 6.93L51.02 6.93L51.02 6.93Q51.12 7.01 51.29 6.98L51.29 6.98L51.29 6.98Q51.39 6.97 51.45 6.97L51.45 6.97L51.45 6.97Q51.52 6.97 51.57 6.97L51.57 6.97L51.57 6.97Q51.69 6.98 51.80 6.99L51.80 6.99L51.80 6.99Q51.92 7.01 52.04 7.01Z"></path></g><defs data-v-fde0c5aa=""><linearGradient data-v-fde0c5aa="" gradientTransform="rotate(25)" id="3129ca1e-f402-47ac-88d3-99685c308fde" x1="0%" y1="0%" x2="100%" y2="0%"><stop data-v-fde0c5aa="" offset="0%" stop-color="#0D7CE9" stop-opacity="1"></stop><stop data-v-fde0c5aa="" offset="100%" stop-color="#15CFF1" stop-opacity="1"></stop></linearGradient></defs><g data-v-fde0c5aa="" id="e5b21568-3445-47d5-86d4-479e9378e046" stroke="none" fill="url(#3129ca1e-f402-47ac-88d3-99685c308fde)" transform="matrix(0.735260298947523,0,0,0.735260298947523,116.80299743239945,97.91374760359332)"><path d="M6.6 25c0 1.4 1.1 2.5 2.5 2.5s2.5-1.1 2.5-2.5-1.1-2.5-2.5-2.5-2.5 1.1-2.5 2.5zm4.1 0c0 .9-.7 1.6-1.6 1.6-.9 0-1.6-.7-1.6-1.6 0-.9.7-1.6 1.6-1.6.9 0 1.6.7 1.6 1.6zM64.3 27.8H17.2v14.1h47.1V27.8zM63.4 41H18.1V28.7h45.3V41zM17.2 53.3H30v-9.7H17.2v9.7zm.9-8.8H29v7.9H18.1v-7.9zM32.9 44.2h31v.9h-31zM32.9 46.6h31v.9h-31zM32.9 49.1h31v.9h-31zM32.9 51.6h18v.9h-18zM27.8 70.5h26.1V73H27.8z"></path><path d="M4.1 20.5h73.5v10.9h1.8V20.5c0-2.8-2.3-5.1-5.1-5.1h-67c-2.8 0-5.1 2.3-5.1 5.1v38c0 2.8 2.3 5.1 5.1 5.1h24.1l-.4 5.8h1.8l.5-5.8h15.1l.5 5.8h1.8l-.5-5.8h15.9v-6h-62V20.5z"></path><path d="M82.2 32.3H73c-3.3 0-5.9 2.7-5.9 5.9v28.1c0 3.3 2.7 5.9 5.9 5.9h9.2c3.3 0 5.9-2.7 5.9-5.9V38.2c0-3.2-2.7-5.9-5.9-5.9zm-14 32.5V38.6h18.7v26.2H68.2zm7.7-29.6h3.3c.3 0 .6.3.6.6s-.3.6-.6.6h-3.3c-.3 0-.6-.3-.6-.6s.2-.6.6-.6zM79.3 68c0 .7-.6 1.3-1.3 1.3h-.7c-.7 0-1.3-.6-1.3-1.3 0-.7.6-1.3 1.3-1.3h.7c.6-.1 1.3.5 1.3 1.3z"></path><path d="M68.9 49.9h17.2v-6.7H68.9v6.7zm.8-5.9h15.5v5H69.7v-5zM77.2 50.3h-8.4V57h8.4v-6.7zm-.8 5.9h-6.6v-5h6.6v5zM77.7 57h8.4v-6.7h-8.4V57zm.9-5.8h6.6v5h-6.6v-5zM77.4 42.6c1 0 1.8-.8 1.8-1.8s-.9-1.8-1.8-1.8-1.8.8-1.8 1.8.8 1.8 1.8 1.8zm0-2.7c.5 0 .9.4.9.9s-.4.9-.9.9-.9-.4-.9-.9.3-.9.9-.9zM68.9 57.9h17.2v.9H68.9zM68.9 59.6h17.2v.9H68.9zM68.9 61.2h17.2v.9H68.9zM68.9 62.8H79v.9H68.9z"></path></g><!----></svg>